<svg width="32" height="32" viewBox="0 0 32 32" fill="none" xmlns="http://www.w3.org/2000/svg">
<path fill-rule="evenodd" clip-rule="evenodd" d="M4.33301 9.33333C4.33301 8.78104 4.78072 8.33333 5.33301 8.33333H26.6663C27.2186 8.33333 27.6663 8.78104 27.6663 9.33333C27.6663 9.88561 27.2186 10.3333 26.6663 10.3333H5.33301C4.78072 10.3333 4.33301 9.88561 4.33301 9.33333Z" fill="#02585E"/>
<path opacity="0.7" d="M4.33301 16C4.33301 15.4477 4.78072 15 5.33301 15H19.9997C20.552 15 20.9997 15.4477 20.9997 16C20.9997 16.5523 20.552 17 19.9997 17H5.33301C4.78072 17 4.33301 16.5523 4.33301 16Z" fill="#02585E"/>
<path opacity="0.4" d="M4.33301 22.6667C4.33301 22.1144 4.78072 21.6667 5.33301 21.6667H11.9997C12.552 21.6667 12.9997 22.1144 12.9997 22.6667C12.9997 23.219 12.552 23.6667 11.9997 23.6667H5.33301C4.78072 23.6667 4.33301 23.219 4.33301 22.6667Z" fill="#02585E"/>
</svg>
